<?xml version="1.0" encoding="utf-8"?>
<!-- Generator: Adobe Illustrator 25.2.1, SVG Export Plug-In . SVG Version: 6.00 Build 0)  -->
<svg version="1.1" id="Layer_1" xmlns="http://www.w3.org/2000/svg" xmlns:xlink="http://www.w3.org/1999/xlink" x="0px" y="0px"
	 viewBox="0 0 1080 1080" style="enable-background:new 0 0 1080 1080;" xml:space="preserve">
<g>
	<path d="M826.85,949.36c10.62-7.4,21.02-15.28,31.17-23.6l0,0C847.86,934.08,837.47,941.96,826.85,949.36z"/>
	<path d="M928.42,855.35L928.42,855.35c151.65-184.92,150.61-453.12-3.08-636.92c0,0,0,0,0,0.01
		C1079.03,402.24,1080.06,670.43,928.42,855.35z"/>
	<path d="M861.68,154.77C861.68,154.77,861.69,154.77,861.68,154.77c-185.02-154.7-455.57-154.7-640.59,0l0,0
		C406.11,0.07,676.65,0.07,861.68,154.77z"/>
	<path d="M157.43,218.43L157.43,218.43C3.75,402.23,2.7,670.42,154.35,855.34l0,0C2.71,670.42,3.75,402.23,157.43,218.43z"/>
	<path d="M826.85,949.36c-181.64,126.58-428.54,118.71-602.07-23.59l0,0C398.31,1068.07,645.2,1075.95,826.85,949.36z"/>
	<path d="M638.56,895.43c-71.67-71.67-71.67-187.86,0-259.53s187.86-71.67,259.53,0c59.46,59.46,69.54,149.55,30.33,219.45
		c151.65-184.92,150.61-453.11-3.07-636.91c42.08,70.47,32.8,163.06-27.89,223.74c-71.67,71.67-187.86,71.67-259.53,0
		s-71.67-187.86,0-259.52c60.68-60.68,153.28-69.96,223.75-27.89c-185.03-154.7-455.57-154.7-640.59,0
		c70.47-42.08,163.07-32.8,223.75,27.88c71.67,71.67,71.67,187.86,0,259.52c-71.67,71.67-187.86,71.67-259.53,0
		c-60.68-60.68-69.96-153.28-27.88-223.75c-153.68,183.81-154.72,452-3.09,636.92c-39.19-69.9-29.12-159.98,30.34-219.43
		c71.67-71.67,187.86-71.67,259.53,0s71.67,187.86,0,259.52c-59.46,59.46-149.54,69.53-219.44,30.34
		c173.54,142.3,420.43,150.18,602.07,23.59c10.62-7.4,21.02-15.28,31.17-23.6C788.11,964.96,698.02,954.89,638.56,895.43z"/>
</g>
</svg>
