<?xml version="1.0" standalone="no"?>
<!DOCTYPE svg PUBLIC "-//W3C//DTD SVG 20010904//EN"
 "http://www.w3.org/TR/2001/REC-SVG-20010904/DTD/svg10.dtd">
<svg version="1.0" xmlns="http://www.w3.org/2000/svg"
 width="4500.000000pt" height="4500.000000pt" viewBox="0 0 4500.000000 4500.000000"
 preserveAspectRatio="xMidYMid meet">
<metadata>
Created by potrace 1.11, written by Peter Selinger 2001-2013
</metadata>
<g transform="translate(0.000000,4500.000000) scale(0.100000,-0.100000)"
fill="#000000" stroke="none">
<path d="M40925 33135 c-550 -276 -1285 -409 -2695 -487 -274 -15 -2765 -14
-9200 3 -2192 6 -5276 9 -6855 7 -3145 -5 -2929 -1 -3362 -63 -1362 -197
-2740 -871 -4048 -1980 -482 -408 -1060 -990 -1500 -1510 -1434 -1692 -2611
-3844 -3405 -6225 -60 -179 -185 -559 -279 -845 -534 -1622 -1081 -3025 -1656
-4245 -140 -298 -453 -915 -598 -1180 -523 -957 -1025 -1697 -1606 -2370 -152
-177 -584 -610 -741 -744 -793 -678 -1570 -1057 -2464 -1206 -282 -47 -458
-60 -906 -70 -228 -5 -541 -14 -695 -20 -154 -5 -283 -10 -287 -10 -5 0 -8
-92 -8 -205 l0 -205 1178 0 c1387 0 1693 10 2192 70 1470 179 2675 732 3780
1736 293 267 649 640 926 974 923 1109 1805 2621 2629 4505 465 1061 845 2057
1350 3540 96 281 188 546 204 590 l29 80 3446 3 3446 2 0 -47 c0 -61 -44
-1222 -70 -1858 -68 -1640 -169 -3805 -275 -5895 -19 -376 -35 -690 -35 -697
0 -11 263 -13 1407 -13 l1406 0 -7 203 c-4 111 -11 328 -16 482 -42 1212 -84
3323 -110 5545 -24 2024 -31 3066 -37 5690 -6 2859 -6 2900 33 3210 157 1259
861 2012 2188 2340 526 130 1229 203 1736 179 1132 -52 1988 -279 2610 -694
173 -116 275 -199 415 -339 420 -422 662 -966 744 -1671 35 -294 35 -927 1
-3370 -6 -396 -24 -1685 -40 -2865 -47 -3405 -49 -3578 -55 -4495 -6 -874 -14
-1152 -40 -1365 -127 -1018 -587 -1700 -1435 -2125 -567 -284 -1252 -437
-2175 -486 -454 -24 -1227 -2 -1804 51 -118 11 -216 18 -218 16 -3 -2 -9 -53
-14 -113 -5 -59 -11 -127 -14 -150 l-5 -43 6900 0 c6484 0 6900 1 6900 17 0 9
-5 79 -12 156 l-11 139 -51 -6 c-87 -11 -502 -44 -711 -58 -315 -20 -1256 -17
-1515 5 -1072 93 -1811 325 -2370 745 -133 99 -369 331 -457 447 -330 438
-501 941 -552 1620 -6 77 -15 698 -21 1380 -12 1546 -35 3121 -60 4305 -6 245
-10 469 -10 498 l0 52 4140 0 4140 0 0 230 0 230 -4139 0 -4139 0 -6 303 c-3
166 -11 660 -16 1097 -38 2972 -39 3152 -10 3372 164 1277 688 2107 1630 2583
567 286 1225 436 2175 497 242 15 1092 15 1375 -1 1531 -84 2584 -376 3475
-966 1293 -855 2233 -2324 3314 -5175 62 -162 114 -297 117 -299 3 -3 72 28
155 69 130 65 149 78 145 95 -3 11 -601 1536 -1328 3388 l-1323 3369 -285 160
c-157 88 -301 167 -320 177 l-35 17 -160 -81z m-21275 -825 c0 -22 11 -96 25
-163 104 -516 162 -1269 196 -2517 15 -541 15 -2432 0 -3215 -18 -976 -57
-2466 -67 -2612 l-6 -83 -3379 0 c-1858 0 -3379 2 -3379 4 0 26 523 1522 713
2041 1012 2760 1857 4345 2847 5335 835 834 1765 1225 2973 1248 l77 2 0 -40z"/>
</g>
</svg>
